<?xml version="1.0" encoding="UTF-8" standalone="no"?>
<svg version="1.1" viewBox="0 0 45 24" xmlns="http://www.w3.org/2000/svg" class="dn-small">
  <g fill="#000" fill-rule="evenodd">
    <path d="m42.504 23.996c1.381 0 2.5002-1.0736 2.5002-2.9992 0-1.9261-1.1192-2.9996-2.5002-2.9996-1.381 0-2.4998 1.0736-2.4998 2.9996 0 1.9256 1.1188 2.9992 2.4998 2.9992"/>
    <path d="m9 22.984v-22h1.217c1.137 0 1.783 0.52 1.783 1.987v18.089c0 1.467-0.646 1.924-1.783 1.924h-1.217zm-7-20v18c0 2.202-0.834 2.534-1.458 2.534h-0.542v0.478h10.525c5.8 0 9.475-4.514 9.475-11.998 0-7.448-3.675-11.998-9.475-11.998h-10.525v0.477h0.542c0.624-1e-3 1.458 0.305 1.458 2.507z"/>
    <path d="m20.036 0.058012v0.477l0.777-9e-3c0.809 0 1.187 0.698 1.187 2.239v18.292c0 1.541-0.607 2.52-1.598 2.52h-0.402v0.481h5v-0.481h-0.404c-0.991 0-1.596-0.979-1.596-2.52v-16l10 19h5v-21.064c0-1.541 0.543-2.459 1.533-2.459h0.467v-0.477h-5v0.477h0.402c1.028 0 1.598 0.982 1.598 2.523v13l-9-16-7.964 1e-3z"/>
  </g>
</svg>
